<?xml version="1.0" standalone="no"?>
<!DOCTYPE svg PUBLIC "-//W3C//DTD SVG 20010904//EN"
 "http://www.w3.org/TR/2001/REC-SVG-20010904/DTD/svg10.dtd">
<svg version="1.0" xmlns="http://www.w3.org/2000/svg"
 width="1100.000000pt" height="350.000000pt" viewBox="0 0 1100.000000 350.000000"
 preserveAspectRatio="xMidYMid meet">

<g transform="translate(0.000000,350.000000) scale(0.100000,-0.100000)"
fill="#FFFFFF" stroke="none">
<path d="M0 1745 l0 -1705 908 0 908 0 22 43 c24 48 59 72 101 69 26 -2 29 2
55 87 l28 89 37 -5 c20 -4 38 -10 41 -14 3 -4 19 -7 35 -7 17 1 44 -6 61 -15
47 -24 123 -27 164 -7 19 9 59 23 89 30 45 10 63 22 105 66 118 122 136 148
147 213 10 54 13 59 29 51 32 -17 40 -67 16 -110 -8 -14 -26 -50 -41 -80 -17
-34 -52 -78 -92 -114 -63 -58 -66 -65 -49 -107 5 -12 -7 -22 -52 -42 -91 -41
-115 -44 -131 -14 -14 26 -73 43 -106 31 -14 -6 -103 21 -115 35 -10 12 -69
41 -83 41 -9 0 -22 9 -30 21 -20 28 -25 9 -16 -65 6 -49 4 -63 -7 -69 -12 -7
-64 -107 -64 -123 0 -2 187 -3 416 -2 404 3 417 4 428 23 6 11 20 28 31 38 10
10 24 32 30 50 6 18 18 33 29 35 17 4 18 -2 14 -72 l-5 -76 219 0 218 0 0
1205 0 1206 -21 -11 c-13 -7 -25 -8 -32 -2 -7 5 -25 9 -42 9 -41 0 -105 12
-105 21 0 4 7 15 15 25 20 27 105 25 150 -3 l35 -22 0 491 0 491 -270 0 c-226
0 -270 -2 -270 -14 0 -8 6 -16 12 -18 7 -3 2 -7 -10 -10 -18 -5 -22 -2 -22 17
0 23 0 23 -135 24 -84 0 -133 -4 -130 -9 4 -6 1 -10 -4 -10 -6 0 -11 4 -11 10
0 13 -617 13 -625 -1 -4 -5 -14 -9 -23 -9 -15 0 -15 2 -2 10 8 5 10 10 4 10
-5 0 -16 -6 -22 -12 -10 -10 -15 -10 -21 0 -7 11 -52 13 -230 8 -122 -3 -226
-8 -232 -11 -5 -4 -9 -1 -9 4 0 8 -205 11 -670 11 l-670 0 0 -1705z m2565
1654 c9 -26 -2 -38 -12 -13 -3 10 -11 22 -17 26 -7 5 -4 8 6 8 9 0 20 -9 23
-21z m183 8 c13 5 14 3 5 -7 -13 -14 -33 -5 -32 13 0 9 2 9 5 0 3 -7 13 -9 22
-6z m-1091 -3 c-3 -3 -12 -4 -19 -1 -8 3 -5 6 6 6 11 1 17 -2 13 -5z m972 -17
c-9 -7 -19 -21 -22 -32 -3 -13 -5 -9 -6 13 -1 27 2 32 22 32 20 -1 20 -2 6
-13z m232 -29 c49 3 80 1 76 -5 -3 -5 -44 -10 -91 -12 -73 -2 -86 0 -86 13 0
9 -6 16 -12 16 -9 0 -8 3 2 10 11 7 17 4 22 -9 5 -16 16 -17 89 -13z m437 -19
c-10 -7 -10 -9 0 -9 10 0 10 -3 0 -14 -11 -12 -14 -11 -20 3 -6 13 -8 12 -14
-6 -3 -13 -9 -21 -13 -19 -4 3 -18 -4 -31 -15 -25 -19 -24 -20 24 -23 28 -1
29 -18 2 -47 -25 -27 -42 -65 -38 -86 2 -7 -4 -13 -13 -13 -26 0 -17 -38 12
-47 l26 -9 -57 -57 c-32 -31 -62 -57 -67 -57 -5 0 -9 -22 -9 -49 0 -34 -6 -56
-21 -75 -11 -14 -17 -26 -12 -26 4 0 0 -5 -10 -11 -22 -13 -59 14 -50 37 3 8
-2 17 -11 20 -11 4 -16 19 -16 43 -1 20 -7 63 -15 96 -21 86 -19 126 10 177
27 49 54 80 101 116 24 19 30 20 32 7 2 -8 6 -15 9 -15 9 0 42 45 43 58 0 6 5
12 11 12 5 0 7 -4 4 -10 -10 -16 10 -11 36 9 31 23 48 28 77 23 18 -4 20 -7
10 -13z m-838 -15 c0 -8 -5 -12 -10 -9 -6 4 -8 11 -5 16 9 14 15 11 15 -7z
m370 -34 c0 -5 10 -11 23 -11 20 -1 20 -2 2 -6 -11 -3 -27 -11 -35 -19 -9 -7
-41 -15 -72 -18 -45 -3 -58 -1 -62 11 -8 20 -5 23 27 29 14 2 36 8 49 13 31
13 68 13 68 1z m100 -45 c11 -13 10 -14 -4 -9 -9 3 -16 10 -16 15 0 13 6 11
20 -6z m-152 -77 c25 -25 14 -40 -24 -33 -44 7 -54 12 -54 31 0 18 61 19 78 2z
m62 -48 c0 -5 -4 -10 -10 -10 -5 0 -10 5 -10 10 0 6 5 10 10 10 6 0 10 -4 10
-10z m-1814 -103 c12 -7 40 -22 63 -35 37 -20 41 -26 35 -50 -12 -52 -28 -57
-58 -18 -26 34 -56 48 -56 26 0 -13 32 -45 53 -53 9 -3 17 -13 17 -22 0 -8 5
-15 12 -15 8 0 7 -6 -4 -16 -11 -12 -14 -27 -11 -55 4 -24 1 -45 -7 -54 -7 -8
-13 -25 -14 -38 -1 -29 -34 -29 -53 1 -15 21 -14 22 16 22 17 0 31 5 31 10 0
6 -20 10 -45 10 -35 0 -47 5 -55 21 -7 12 -17 18 -27 15 -8 -3 -26 -9 -40 -12
-23 -6 -24 -5 -14 14 17 32 13 77 -9 97 -19 17 -19 20 -4 36 9 10 25 21 35 24
15 5 17 10 9 26 -10 17 -7 20 20 25 16 4 30 10 30 13 0 9 -53 8 -60 -1 -3 -4
-24 -2 -47 5 -34 10 -38 14 -27 25 8 7 18 11 22 9 4 -3 16 -1 27 4 27 10 133
1 161 -14z m2078 -275 c7 -12 -43 -39 -89 -47 -40 -7 -40 -7 -20 12 40 38 96
56 109 35z m-2054 -112 c8 -5 11 -10 5 -10 -5 0 -17 5 -25 10 -8 5 -10 10 -5
10 6 0 17 -5 25 -10z m-503 -86 c4 -31 -32 -66 -63 -62 -15 2 -29 9 -32 16 -2
8 2 10 13 6 11 -5 16 -2 15 7 -4 29 1 40 23 49 29 12 42 7 44 -16z m133 -149
c0 -20 8 -39 23 -53 21 -20 29 -75 14 -100 -11 -16 -115 -34 -162 -27 -51 8
-60 29 -23 61 21 18 21 18 15 0 -6 -15 -4 -17 15 -12 13 3 28 6 34 6 6 0 21 9
33 19 20 18 21 22 9 39 -12 18 -18 22 -36 22 -4 0 -6 17 -4 38 4 36 5 37 43
38 37 1 39 0 39 -31z m1928 -4 c29 -16 97 -85 118 -120 l19 -33 -26 -21 c-15
-12 -30 -32 -34 -45 -3 -12 -21 -30 -38 -39 -18 -8 -45 -26 -60 -39 l-29 -24
-27 22 c-38 31 -50 63 -50 131 1 94 41 160 107 176 2 1 11 -3 20 -8z m-763
-101 c35 -17 45 -29 64 -78 13 -31 27 -66 31 -77 24 -54 1 -125 -39 -125 -25
0 -130 57 -161 87 -13 14 -39 31 -57 38 -41 17 -52 54 -26 88 14 20 120 83
142 86 3 1 23 -8 46 -19z m983 -212 c10 -10 15 -10 21 1 9 13 31 7 31 -8 0 -5
-11 -16 -25 -25 -23 -15 -26 -15 -45 1 -11 10 -20 23 -20 30 0 17 22 17 38 1z
m-1184 -86 c15 -18 15 -20 -4 -37 -19 -18 -20 -17 -20 3 0 13 -6 22 -15 22
-16 0 -20 12 -8 23 11 12 29 8 47 -11z m927 -252 c30 -33 66 -80 79 -106 28
-54 66 -87 91 -79 12 4 32 -8 62 -37 46 -45 54 -60 61 -117 2 -21 16 -46 38
-68 35 -35 46 -38 108 -28 l35 5 -33 -11 c-39 -12 -50 -33 -30 -57 9 -9 18
-33 21 -53 3 -20 15 -56 26 -80 19 -38 19 -44 6 -59 -8 -9 -15 -28 -15 -43 0
-14 -4 -28 -9 -31 -4 -3 -11 -24 -14 -47 -5 -37 -22 -67 -103 -179 -23 -32
-94 -80 -119 -80 -6 0 -19 6 -29 13 -17 13 -17 15 -1 46 9 19 14 43 11 56 -3
13 -1 27 4 30 6 4 10 14 9 23 -1 10 5 42 14 72 45 148 39 286 -17 401 -65 133
-104 181 -155 194 -30 8 -59 38 -77 82 -8 17 -18 35 -24 38 -6 4 -8 10 -5 15
3 5 -11 27 -31 50 -32 35 -35 44 -30 75 6 31 10 35 39 35 26 0 42 -11 88 -60z
m-512 6 c44 -23 51 -39 55 -114 3 -62 7 -75 32 -102 16 -17 50 -42 75 -55 26
-13 58 -41 75 -66 25 -36 29 -51 29 -108 0 -58 -6 -77 -49 -165 -27 -54 -50
-115 -53 -135 -2 -20 -6 -42 -9 -49 -2 -8 5 -34 16 -59 11 -25 20 -52 20 -59
0 -24 21 -60 43 -73 13 -8 46 -13 82 -12 38 1 72 -4 91 -14 17 -8 53 -18 80
-21 27 -4 54 -11 61 -16 16 -13 -17 -73 -77 -138 -37 -41 -55 -53 -86 -57 -48
-6 -140 19 -183 51 -34 26 -111 106 -111 118 0 4 -6 13 -13 20 -7 7 -21 31
-31 53 -35 78 -54 120 -66 153 -7 17 -17 32 -22 32 -5 0 -6 5 -3 11 4 6 -2 5
-14 -3 -12 -7 -21 -23 -21 -38 0 -51 -13 -106 -32 -133 -11 -15 -18 -34 -15
-41 3 -7 1 -19 -3 -26 -6 -10 -10 -7 -15 13 -8 30 -67 87 -90 87 -8 0 -15 5
-15 10 0 6 -6 10 -14 10 -15 0 -22 -21 -40 -130 -11 -68 -11 -80 7 -130 11
-30 31 -72 44 -92 17 -28 19 -38 10 -38 -19 0 -87 65 -87 82 0 8 -16 28 -35
45 -24 22 -58 79 -114 194 -67 141 -79 174 -85 235 -9 91 2 117 58 134 98 30
156 67 156 101 0 22 -24 41 -42 34 -24 -9 -76 63 -72 99 2 16 9 33 17 38 8 4
32 23 53 42 25 23 53 37 80 41 23 3 50 15 59 25 10 11 22 20 28 20 11 0 47 39
47 52 0 4 8 16 18 26 9 10 26 36 37 58 19 36 77 104 90 104 3 0 18 -6 34 -14z
m917 -31 c5 -34 3 -50 -8 -63 -9 -9 -27 -42 -42 -72 -34 -69 -43 -78 -52 -55
-5 11 -1 30 9 47 9 17 17 36 17 44 0 20 52 144 61 144 4 0 11 -20 15 -45z
m-1751 -82 c4 -17 1 -31 -8 -40 -12 -12 -19 -10 -47 13 l-33 28 28 23 c31 27
49 20 60 -24z m20 -464 c4 -6 5 -13 2 -15 -7 -8 -57 7 -57 17 0 13 47 11 55
-2z m84 -620 c3 -11 -1 -10 -19 2 -13 9 -26 22 -29 30 -3 11 1 10 19 -2 13 -9
26 -22 29 -30z m352 -395 c-5 -21 -9 -30 -10 -19 -1 24 10 67 15 62 3 -2 0
-22 -5 -43z"/>
<path d="M981 2984 c0 -11 3 -14 6 -6 3 7 2 16 -1 19 -3 4 -6 -2 -5 -13z"/>
<path d="M922 2915 c-13 -28 -2 -34 18 -10 9 11 10 19 3 26 -6 6 -13 1 -21
-16z"/>
<path d="M7185 2120 c-33 -5 -70 -12 -82 -15 l-23 -5 0 -360 0 -360 95 0 95 0
0 130 0 130 38 0 c36 0 39 -3 127 -130 l90 -129 186 -1 185 0 29 90 29 90 141
0 141 0 29 -90 29 -90 97 0 97 0 -122 368 -123 367 -148 0 -148 0 -113 -339
c-62 -186 -115 -340 -117 -343 -4 -3 -83 101 -155 203 l-22 32 40 26 c83 55
119 161 90 266 -17 63 -79 123 -150 145 -65 20 -248 28 -335 15z m994 -394
c-2 -2 -41 -6 -86 -9 -69 -3 -83 -2 -83 11 0 8 19 74 42 146 l43 130 44 -137
c24 -76 42 -139 40 -141z m-757 254 c47 -13 68 -43 68 -95 0 -22 -7 -50 -15
-62 -18 -26 -71 -43 -132 -43 -72 0 -73 1 -73 105 0 89 1 94 23 98 42 8 92 7
129 -3z"/>
<path d="M3876 1763 c-65 -197 -121 -364 -124 -371 -3 -10 17 -12 94 -10 l98
3 26 85 26 85 144 0 143 0 26 -85 27 -85 97 -3 c53 -1 97 1 97 5 0 4 -54 171
-121 371 l-122 362 -146 0 -146 0 -119 -357z m311 95 c23 -73 38 -135 33 -138
-5 -3 -44 -4 -87 -3 -57 1 -78 5 -77 15 2 25 77 258 83 258 4 0 25 -60 48
-132z"/>
<path d="M4500 2113 c0 -5 55 -171 122 -370 l123 -363 147 0 146 0 121 363
c67 199 121 366 121 370 0 4 -44 6 -97 5 l-97 -3 -94 -288 c-51 -159 -95 -287
-97 -285 -2 1 -45 132 -96 291 l-93 287 -103 0 c-57 0 -103 -3 -103 -7z"/>
<path d="M5490 2117 c0 -1 -56 -168 -125 -370 l-125 -367 98 0 98 0 29 90 29
90 141 0 141 0 29 -90 29 -90 97 0 97 0 -122 368 -123 367 -146 3 c-81 1 -147
1 -147 -1z m230 -387 c0 -12 -15 -15 -86 -15 l-86 0 6 29 c3 16 23 80 43 144
l37 115 43 -129 c24 -70 43 -135 43 -144z"/>
<path d="M6320 2040 l0 -80 120 0 120 0 0 -290 0 -290 100 0 100 0 0 290 0
290 120 0 120 0 0 80 0 80 -340 0 -340 0 0 -80z"/>
<path d="M8574 1753 l123 -368 148 0 148 0 123 368 122 367 -97 0 -97 0 -94
-285 c-52 -157 -97 -285 -100 -285 -3 0 -47 127 -96 283 l-90 282 -106 3 -107
3 123 -368z"/>
<path d="M9310 1750 l0 -370 290 0 290 0 0 75 0 75 -192 2 -193 3 -3 73 -3 72
166 0 166 0 -3 78 -3 77 -160 2 -160 3 0 62 0 63 188 3 187 2 0 75 0 75 -285
0 -285 0 0 -370z"/>
<path d="M9990 1750 l0 -370 280 0 280 0 0 80 0 80 -177 2 -178 3 -3 288 -2
287 -100 0 -100 0 0 -370z"/>
</g>
</svg>
